# xmcd CD database file
#
# Track frame offsets:
#	150
#	27874
#	44465
#	77772
#	112117
#	135860
#	152827
#	167770
#	182093
#
# Disc length: 2655 seconds
#
# Revision: 0
# Processed by: cddbd v1.5.2PL0 Copyright (c) Steve Scherf et al.
# Submitted via: CDex 1.70beta2
#
DISCID=6c0a5d09
DTITLE=Bobby Lounge - Somethin's Wrong
DYEAR=2008
DGENRE=Blues
TTITLE0=Somethin's Wrong
TTITLE1=I Don't Care
TTITLE2=A Good Man Is Hard To Find
TTITLE3=Oh Baby
TTITLE4=I Don't Know
TTITLE5=Squirrelsquatch
TTITLE6=Style In My Life
TTITLE7=Jesus On The Main Line
TTITLE8=Rudolph, The Red-Nosed Reindeer
EXTD=YEAR: 2008
EXTT0=
EXTT1=
EXTT2=
EXTT3=
EXTT4=
EXTT5=
EXTT6=
EXTT7=
EXTT8=
PLAYORDER=
